<?xml version="1.0" encoding="UTF-8"?>
<svg xmlns="http://www.w3.org/2000/svg" xmlns:xlink="http://www.w3.org/1999/xlink" width="32px" height="32px" viewBox="0 0 32 32" version="1.1">
<defs>
<radialGradient id="radial0" gradientUnits="userSpaceOnUse" cx="376.700287" cy="347.103912" fx="375.070007" fy="354.821899" r="74.803802" gradientTransform="matrix(0.0291394,0,0,0.0355501,0,0.00247749)">
<stop offset="0" style="stop-color:rgb(94.509804%,35.294118%,16.862745%);stop-opacity:1;"/>
<stop offset="0.558" style="stop-color:rgb(94.509804%,34.509804%,16.470588%);stop-opacity:1;"/>
<stop offset="0.942" style="stop-color:rgb(94.117647%,30.980392%,15.294118%);stop-opacity:1;"/>
<stop offset="1" style="stop-color:rgb(94.117647%,30.196078%,15.294118%);stop-opacity:1;"/>
</radialGradient>
<radialGradient id="radial1" gradientUnits="userSpaceOnUse" cx="478.695892" cy="359.485291" fx="478.695892" fy="359.485291" r="46.0956" gradientTransform="matrix(0.0291394,0,0,0.0355501,0,0.00247749)">
<stop offset="0" style="stop-color:rgb(17.254902%,61.176471%,71.764706%);stop-opacity:1;"/>
<stop offset="0.4995" style="stop-color:rgb(16.078431%,60.392157%,70.588235%);stop-opacity:1;"/>
<stop offset="0.8431" style="stop-color:rgb(12.156863%,57.254902%,67.058824%);stop-opacity:1;"/>
<stop offset="1" style="stop-color:rgb(8.235294%,55.294118%,64.313725%);stop-opacity:1;"/>
</radialGradient>
<radialGradient id="radial2" gradientUnits="userSpaceOnUse" cx="556.121216" cy="353.505615" fx="556.121216" fy="353.505615" r="29.817301" gradientTransform="matrix(0.0291394,0,0,0.0355501,0,0.00247749)">
<stop offset="0" style="stop-color:rgb(17.254902%,61.176471%,71.764706%);stop-opacity:1;"/>
<stop offset="0.4995" style="stop-color:rgb(16.078431%,60.392157%,70.588235%);stop-opacity:1;"/>
<stop offset="0.8431" style="stop-color:rgb(12.156863%,57.254902%,67.058824%);stop-opacity:1;"/>
<stop offset="1" style="stop-color:rgb(8.235294%,55.294118%,64.313725%);stop-opacity:1;"/>
</radialGradient>
<radialGradient id="radial3" gradientUnits="userSpaceOnUse" cx="408.653412" cy="508.384399" fx="408.653412" fy="508.384399" r="83.5159" gradientTransform="matrix(0.0291394,0,0,0.0355501,0,0.00247749)">
<stop offset="0" style="stop-color:rgb(41.568627%,25.882353%,60%);stop-opacity:1;"/>
<stop offset="0.4521" style="stop-color:rgb(40.784314%,25.098039%,59.215686%);stop-opacity:1;"/>
<stop offset="0.7631" style="stop-color:rgb(38.431373%,22.745098%,57.254902%);stop-opacity:1;"/>
<stop offset="1" style="stop-color:rgb(35.294118%,19.607843%,54.901961%);stop-opacity:1;"/>
</radialGradient>
</defs>
<g id="surface1">
<path style=" stroke:none;fill-rule:nonzero;fill:url(#radial0);" d="M 8.355469 10.359375 L 10.519531 14.285156 L 13.597656 14.324219 L 12.386719 12.597656 Z M 8.355469 10.359375 "/>
<path style=" stroke:none;fill-rule:nonzero;fill:url(#radial1);" d="M 12.523438 12.507812 L 13.875 14.3125 L 15.375 12.121094 L 14.175781 11.25 Z M 12.523438 12.507812 "/>
<path style=" stroke:none;fill-rule:nonzero;fill:url(#radial2);" d="M 15.507812 12.207031 L 17.398438 12.648438 L 15.011719 12.933594 Z M 15.507812 12.207031 "/>
<path style=" stroke:none;fill-rule:nonzero;fill:url(#radial3);" d="M 10.511719 14.511719 L 13.726562 14.523438 L 11.339844 17.886719 L 11.332031 21.640625 L 10.089844 18.417969 Z M 10.511719 14.511719 "/>
<path style=" stroke:none;fill-rule:nonzero;fill:rgb(41.568628%,25.882354%,60.000002%);fill-opacity:1;" d="M 14.648438 17.867188 L 14.078125 17.867188 L 14.078125 14.679688 L 15.9375 14.679688 L 15.9375 15.234375 L 14.648438 15.234375 Z M 14.648438 17.867188 "/>
<path style=" stroke:none;fill-rule:nonzero;fill:rgb(41.568628%,25.882354%,60.000002%);fill-opacity:1;" d="M 14.605469 16.027344 L 15.785156 16.027344 L 15.785156 16.585938 L 14.605469 16.585938 Z M 14.605469 16.027344 "/>
<path style=" stroke:none;fill-rule:nonzero;fill:rgb(41.568628%,25.882354%,60.000002%);fill-opacity:1;" d="M 16.257812 17.867188 L 16.257812 14.679688 L 16.804688 14.679688 L 16.804688 17.867188 Z M 16.257812 17.867188 "/>
<path style=" stroke:none;fill-rule:nonzero;fill:rgb(41.568628%,25.882354%,60.000002%);fill-opacity:1;" d="M 18.179688 17.859375 C 17.976562 17.859375 17.800781 17.808594 17.644531 17.703125 C 17.488281 17.601562 17.363281 17.460938 17.273438 17.28125 C 17.183594 17.105469 17.140625 16.902344 17.140625 16.671875 C 17.140625 16.441406 17.183594 16.238281 17.273438 16.058594 C 17.363281 15.878906 17.488281 15.738281 17.644531 15.636719 C 17.800781 15.535156 17.976562 15.484375 18.179688 15.484375 C 18.378906 15.484375 18.554688 15.535156 18.714844 15.636719 C 18.871094 15.738281 18.992188 15.878906 19.082031 16.054688 C 19.171875 16.234375 19.214844 16.4375 19.214844 16.671875 C 19.214844 16.902344 19.171875 17.105469 19.082031 17.28125 C 18.992188 17.460938 18.871094 17.601562 18.714844 17.703125 C 18.554688 17.808594 18.378906 17.859375 18.179688 17.859375 Z M 18.179688 17.3125 C 18.269531 17.3125 18.351562 17.285156 18.425781 17.234375 C 18.496094 17.183594 18.554688 17.109375 18.597656 17.011719 C 18.640625 16.917969 18.660156 16.804688 18.660156 16.671875 C 18.660156 16.539062 18.640625 16.425781 18.597656 16.328125 C 18.554688 16.234375 18.496094 16.164062 18.425781 16.109375 C 18.351562 16.058594 18.269531 16.035156 18.179688 16.035156 C 18.089844 16.035156 18.003906 16.058594 17.933594 16.109375 C 17.859375 16.164062 17.804688 16.234375 17.761719 16.328125 C 17.714844 16.425781 17.695312 16.539062 17.695312 16.671875 C 17.695312 16.804688 17.714844 16.917969 17.761719 17.011719 C 17.804688 17.109375 17.859375 17.183594 17.933594 17.234375 C 18.007812 17.285156 18.089844 17.3125 18.179688 17.3125 Z M 18.179688 17.3125 "/>
<path style=" stroke:none;fill-rule:nonzero;fill:rgb(41.568628%,25.882354%,60.000002%);fill-opacity:1;" d="M 20.457031 17.859375 C 20.253906 17.859375 20.074219 17.808594 19.914062 17.707031 C 19.753906 17.605469 19.628906 17.464844 19.539062 17.285156 C 19.449219 17.105469 19.40625 16.902344 19.40625 16.671875 C 19.40625 16.441406 19.449219 16.238281 19.539062 16.058594 C 19.628906 15.878906 19.753906 15.738281 19.914062 15.636719 C 20.074219 15.535156 20.253906 15.484375 20.457031 15.484375 C 20.65625 15.484375 20.832031 15.535156 20.976562 15.636719 C 21.125 15.738281 21.234375 15.882812 21.304688 16.074219 L 20.878906 16.351562 C 20.832031 16.242188 20.769531 16.164062 20.695312 16.109375 C 20.621094 16.058594 20.542969 16.035156 20.453125 16.035156 C 20.359375 16.035156 20.277344 16.058594 20.203125 16.109375 C 20.125 16.164062 20.066406 16.234375 20.023438 16.328125 C 19.980469 16.425781 19.960938 16.539062 19.960938 16.671875 C 19.960938 16.808594 19.980469 16.921875 20.023438 17.015625 C 20.066406 17.109375 20.125 17.183594 20.203125 17.234375 C 20.277344 17.285156 20.359375 17.3125 20.453125 17.3125 C 20.542969 17.3125 20.621094 17.285156 20.695312 17.234375 C 20.769531 17.1875 20.832031 17.105469 20.878906 16.992188 L 21.304688 17.277344 C 21.234375 17.460938 21.125 17.605469 20.976562 17.707031 C 20.832031 17.808594 20.65625 17.859375 20.457031 17.859375 Z M 20.457031 17.859375 "/>
<path style=" stroke:none;fill-rule:nonzero;fill:rgb(41.568628%,25.882354%,60.000002%);fill-opacity:1;" d="M 21.570312 17.867188 L 21.570312 14.679688 L 22.117188 14.679688 L 22.117188 17.867188 Z M 22.023438 17.398438 L 22.039062 16.582031 L 22.917969 15.5625 L 23.574219 15.5625 L 22.726562 16.613281 L 22.441406 16.894531 Z M 22.980469 17.867188 L 22.339844 16.902344 L 22.683594 16.382812 L 23.644531 17.867188 Z M 22.980469 17.867188 "/>
<path style=" stroke:none;fill-rule:nonzero;fill:rgb(41.568628%,25.882354%,60.000002%);fill-opacity:1;" d="M 14.441406 20.109375 L 14.441406 18.886719 L 14.046875 18.886719 L 14.046875 18.660156 L 15.054688 18.660156 L 15.054688 18.886719 L 14.660156 18.886719 L 14.660156 20.109375 Z M 14.441406 20.109375 "/>
<path style=" stroke:none;fill-rule:nonzero;fill:rgb(41.568628%,25.882354%,60.000002%);fill-opacity:1;" d="M 15.777344 20.128906 C 15.683594 20.128906 15.601562 20.109375 15.519531 20.074219 C 15.441406 20.035156 15.375 19.984375 15.316406 19.914062 C 15.257812 19.847656 15.214844 19.769531 15.183594 19.679688 C 15.152344 19.589844 15.136719 19.488281 15.136719 19.382812 C 15.136719 19.277344 15.152344 19.175781 15.183594 19.085938 C 15.214844 18.996094 15.257812 18.917969 15.316406 18.851562 C 15.375 18.785156 15.441406 18.730469 15.519531 18.695312 C 15.597656 18.65625 15.683594 18.636719 15.777344 18.636719 C 15.867188 18.636719 15.953125 18.65625 16.03125 18.691406 C 16.109375 18.730469 16.175781 18.78125 16.234375 18.847656 C 16.292969 18.914062 16.335938 18.996094 16.367188 19.085938 C 16.398438 19.175781 16.414062 19.277344 16.414062 19.382812 C 16.414062 19.492188 16.398438 19.589844 16.367188 19.679688 C 16.335938 19.769531 16.292969 19.851562 16.234375 19.917969 C 16.175781 19.984375 16.109375 20.039062 16.03125 20.074219 C 15.953125 20.109375 15.867188 20.128906 15.777344 20.128906 Z M 15.777344 19.894531 C 15.835938 19.894531 15.890625 19.878906 15.941406 19.855469 C 15.992188 19.832031 16.035156 19.796875 16.074219 19.75 C 16.109375 19.703125 16.140625 19.652344 16.160156 19.589844 C 16.183594 19.527344 16.191406 19.457031 16.191406 19.382812 C 16.191406 19.308594 16.183594 19.242188 16.160156 19.179688 C 16.140625 19.117188 16.113281 19.0625 16.074219 19.019531 C 16.035156 18.972656 15.992188 18.9375 15.941406 18.914062 C 15.890625 18.886719 15.835938 18.875 15.777344 18.875 C 15.714844 18.875 15.660156 18.886719 15.609375 18.914062 C 15.558594 18.9375 15.511719 18.972656 15.476562 19.019531 C 15.4375 19.066406 15.410156 19.117188 15.386719 19.179688 C 15.367188 19.242188 15.355469 19.308594 15.355469 19.382812 C 15.355469 19.457031 15.367188 19.523438 15.386719 19.585938 C 15.410156 19.648438 15.4375 19.703125 15.476562 19.75 C 15.511719 19.796875 15.558594 19.832031 15.609375 19.855469 C 15.660156 19.878906 15.714844 19.894531 15.777344 19.894531 Z M 15.777344 19.894531 "/>
<path style=" stroke:none;fill-rule:nonzero;fill:rgb(41.568628%,25.882354%,60.000002%);fill-opacity:1;" d="M 17.203125 20.128906 C 17.109375 20.128906 17.027344 20.109375 16.949219 20.074219 C 16.871094 20.039062 16.804688 19.984375 16.746094 19.917969 C 16.6875 19.851562 16.644531 19.773438 16.609375 19.683594 C 16.578125 19.59375 16.5625 19.492188 16.5625 19.382812 C 16.5625 19.273438 16.578125 19.175781 16.609375 19.085938 C 16.644531 18.996094 16.6875 18.917969 16.746094 18.851562 C 16.804688 18.78125 16.871094 18.730469 16.949219 18.695312 C 17.027344 18.65625 17.113281 18.640625 17.207031 18.640625 C 17.308594 18.640625 17.398438 18.660156 17.480469 18.699219 C 17.558594 18.738281 17.628906 18.796875 17.683594 18.875 L 17.542969 19.039062 C 17.5 18.984375 17.449219 18.941406 17.394531 18.914062 C 17.339844 18.886719 17.28125 18.875 17.21875 18.875 C 17.15625 18.875 17.097656 18.886719 17.042969 18.914062 C 16.992188 18.9375 16.945312 18.972656 16.90625 19.019531 C 16.867188 19.0625 16.839844 19.117188 16.816406 19.179688 C 16.796875 19.242188 16.785156 19.308594 16.785156 19.382812 C 16.785156 19.457031 16.796875 19.527344 16.816406 19.589844 C 16.839844 19.652344 16.867188 19.703125 16.90625 19.75 C 16.945312 19.796875 16.992188 19.832031 17.042969 19.855469 C 17.09375 19.882812 17.152344 19.894531 17.214844 19.894531 C 17.273438 19.894531 17.332031 19.882812 17.386719 19.859375 C 17.441406 19.835938 17.492188 19.796875 17.542969 19.746094 L 17.667969 19.945312 C 17.605469 20.007812 17.535156 20.050781 17.453125 20.082031 C 17.371094 20.113281 17.289062 20.128906 17.203125 20.128906 Z M 17.460938 19.910156 L 17.460938 19.371094 L 17.667969 19.371094 L 17.667969 19.945312 Z M 17.460938 19.910156 "/>
<path style=" stroke:none;fill-rule:nonzero;fill:rgb(41.568628%,25.882354%,60.000002%);fill-opacity:1;" d="M 18.175781 19.878906 L 18.847656 19.878906 L 18.847656 20.109375 L 17.957031 20.109375 L 17.957031 18.660156 L 18.824219 18.660156 L 18.824219 18.886719 L 18.175781 18.886719 Z M 18.160156 19.261719 L 18.75 19.261719 L 18.75 19.484375 L 18.160156 19.484375 Z M 18.160156 19.261719 "/>
<path style=" stroke:none;fill-rule:nonzero;fill:rgb(41.568628%,25.882354%,60.000002%);fill-opacity:1;" d="M 19.335938 20.109375 L 19.335938 18.886719 L 18.941406 18.886719 L 18.941406 18.660156 L 19.949219 18.660156 L 19.949219 18.886719 L 19.554688 18.886719 L 19.554688 20.109375 Z M 19.335938 20.109375 "/>
<path style=" stroke:none;fill-rule:nonzero;fill:rgb(41.568628%,25.882354%,60.000002%);fill-opacity:1;" d="M 20.335938 20.109375 L 20.117188 20.109375 L 20.117188 18.660156 L 20.335938 18.660156 Z M 20.96875 19.488281 L 20.320312 19.488281 L 20.320312 19.257812 L 20.96875 19.257812 Z M 20.949219 18.660156 L 21.167969 18.660156 L 21.167969 20.109375 L 20.949219 20.109375 Z M 20.949219 18.660156 "/>
<path style=" stroke:none;fill-rule:nonzero;fill:rgb(41.568628%,25.882354%,60.000002%);fill-opacity:1;" d="M 21.710938 19.878906 L 22.378906 19.878906 L 22.378906 20.109375 L 21.488281 20.109375 L 21.488281 18.660156 L 22.355469 18.660156 L 22.355469 18.886719 L 21.710938 18.886719 Z M 21.695312 19.261719 L 22.285156 19.261719 L 22.285156 19.484375 L 21.695312 19.484375 Z M 21.695312 19.261719 "/>
<path style=" stroke:none;fill-rule:nonzero;fill:rgb(41.568628%,25.882354%,60.000002%);fill-opacity:1;" d="M 22.628906 20.109375 L 22.628906 18.660156 L 23.117188 18.660156 C 23.222656 18.660156 23.3125 18.679688 23.386719 18.722656 C 23.464844 18.761719 23.519531 18.820312 23.5625 18.898438 C 23.601562 18.976562 23.621094 19.066406 23.621094 19.175781 C 23.621094 19.28125 23.601562 19.371094 23.5625 19.449219 C 23.519531 19.523438 23.464844 19.582031 23.386719 19.625 C 23.3125 19.664062 23.222656 19.6875 23.117188 19.6875 L 22.753906 19.6875 L 22.847656 19.566406 L 22.847656 20.109375 Z M 22.847656 19.59375 L 22.753906 19.464844 L 23.105469 19.464844 C 23.203125 19.464844 23.277344 19.4375 23.328125 19.386719 C 23.375 19.335938 23.398438 19.265625 23.398438 19.175781 C 23.398438 19.082031 23.375 19.011719 23.328125 18.960938 C 23.277344 18.914062 23.203125 18.886719 23.105469 18.886719 L 22.753906 18.886719 L 22.847656 18.753906 Z M 23.40625 20.109375 L 23.105469 19.582031 L 23.339844 19.582031 L 23.644531 20.109375 Z M 23.40625 20.109375 "/>
</g>
</svg>
