<svg width="21" height="20" viewBox="0 0 21 20" fill="none" xmlns="http://www.w3.org/2000/svg">
<path d="M20.9985 3.05064C20.9975 1.94425 20.9975 1.14311 20.9995 0.909979V0.896149C21.0015 0.827988 20.9975 0.768717 20.9876 0.71241C20.959 0.560282 20.9007 0.427911 20.8158 0.319248L20.9234 0.216513L20.8088 0.30937C20.799 0.298504 20.7901 0.287638 20.7802 0.276771C20.6221 0.095008 20.4028 -0.00476418 20.1569 0.000175036C20.1509 0.000175036 20.145 0.00116288 20.1391 0.00116288L20.1134 0.00313857H20.0729C18.8243 0.00116288 16.248 0.000175036 13.5235 0.000175036C10.0394 0.000175036 6.31322 0.00116288 4.81071 0.00412641C4.52918 0.00412641 4.28024 0.0238833 4.05205 0.0643849C1.63381 0.493109 0.00781665 2.43521 0.00682881 4.89691C0.00584097 6.36683 0.00584097 7.83674 0.00682881 9.30665V10.6373C0.00682881 11.2359 0.00485312 11.8355 0.00287743 12.4351C-8.60957e-05 13.8152 -0.00502531 15.2426 0.0137437 16.6453C0.0295492 17.7952 0.590644 18.6615 1.63875 19.1505C2.66314 19.6296 3.64703 19.5121 4.56276 18.8018C4.94506 18.5054 5.30859 18.1666 5.66026 17.8396L5.844 17.6678C6.01292 17.5127 6.19172 17.4425 6.42386 17.4425H6.42584C9.50297 17.4485 12.6453 17.4485 16.0336 17.4445C16.3784 17.4435 16.6856 17.4247 16.9711 17.3872C19.012 17.1156 20.7565 15.3285 20.9422 13.3193C21.0064 12.6258 21.0015 6.39646 20.9985 3.05064ZM19.3211 12.6396C19.3172 12.9103 19.2915 13.1444 19.2401 13.3548C18.8875 14.8198 17.6813 15.7671 16.166 15.7681C12.2699 15.7731 9.0288 15.7721 5.96649 15.7662C5.59802 15.7612 5.3234 15.8719 5.06854 16.1109C4.82355 16.3421 4.5677 16.5683 4.32074 16.7866C4.10836 16.9743 3.88807 17.1699 3.67766 17.3655C3.40304 17.6194 3.11755 17.7468 2.82416 17.7468C2.67401 17.7468 2.52188 17.7132 2.36876 17.647C1.9104 17.4494 1.67925 17.0543 1.68024 16.4754C1.6832 13.91 1.6832 11.3456 1.6832 8.78013C1.6832 7.47815 1.6832 6.17518 1.68419 4.87222C1.68419 4.72503 1.68616 4.55315 1.71283 4.38422C1.96177 2.76811 3.22621 1.68148 4.85912 1.67852C6.76664 1.67655 12.2758 1.67655 16.2983 1.67753H19.3251V4.37138C19.3251 7.66683 19.3271 12.1813 19.3211 12.6396Z" fill="#424242"/>
<path d="M8.58131 6.77777C8.57143 7.23909 8.20692 7.58089 7.71398 7.59076H6.24012C6.09195 7.59076 5.94179 7.59175 5.79263 7.59175C5.47158 7.59274 5.13966 7.59373 4.81466 7.58978C4.32371 7.58385 3.95919 7.24206 3.94931 6.77777C3.94437 6.54859 4.02735 6.33423 4.18244 6.17321C4.33852 6.01219 4.55486 5.92131 4.79096 5.91834C5.28389 5.91242 5.77781 5.90945 6.26976 5.90945C6.7617 5.90945 7.25464 5.91242 7.74066 5.91834C7.97774 5.92131 8.19408 6.01219 8.35016 6.1742C8.50426 6.33423 8.58625 6.54859 8.58131 6.77777Z" fill="#424242"/>
<path d="M14.8146 10.7045C14.8116 11.1875 14.4432 11.5283 13.9176 11.5323C13.5126 11.5362 8.48648 11.5342 6.83481 11.5323H6.25889C6.11269 11.5323 5.96649 11.5323 5.82128 11.5333C5.49134 11.5333 5.1614 11.5333 4.83245 11.5313C4.31975 11.5263 3.95722 11.1905 3.94931 10.7133C3.94635 10.4861 4.02834 10.2747 4.18146 10.1177C4.34346 9.9527 4.57067 9.85985 4.82158 9.85787C5.30661 9.85392 7.23784 9.85194 9.2076 9.85194C11.3078 9.85194 13.4514 9.85392 13.9315 9.85787C14.4461 9.86083 14.8166 10.2165 14.8146 10.7035V10.7045Z" fill="#424242"/>
</svg>
