<svg width="20" height="20" viewBox="0 0 20 20" fill="none" xmlns="http://www.w3.org/2000/svg">
<path d="M18.4953 13.1C18.2579 12.9821 17.9834 12.9633 17.7322 13.0477C17.4809 13.1321 17.2734 13.3127 17.1553 13.55C16.5224 14.8282 15.5592 15.914 14.3656 16.6948C13.172 17.4756 11.7913 17.9231 10.3666 17.991C8.94186 18.0588 7.52491 17.7445 6.2625 17.0806C5.00009 16.4167 3.93813 15.4274 3.18662 14.2151C2.4351 13.0028 2.02137 11.6116 1.98826 10.1857C1.95515 8.75975 2.30388 7.35088 2.99832 6.10502C3.69277 4.85915 4.70767 3.82161 5.93791 3.09985C7.16814 2.37809 8.56898 1.99837 9.99531 2.00001C11.4864 1.99355 12.9492 2.40764 14.2156 3.19476C15.4821 3.98188 16.501 5.11012 17.1553 6.45001C17.2747 6.6887 17.4839 6.87021 17.7371 6.9546C17.9903 7.03899 18.2666 7.01936 18.5053 6.90001C18.744 6.78066 18.9255 6.57138 19.0099 6.31821C19.0943 6.06503 19.0747 5.7887 18.9553 5.55001C17.9519 3.53075 16.2955 1.90987 14.255 0.950438C12.2145 -0.00899237 9.90965 -0.250651 7.71451 0.264685C5.51937 0.780021 3.56283 2.0221 2.16243 3.78933C0.762039 5.55656 0 7.74519 0 10C0 12.2548 0.762039 14.4435 2.16243 16.2107C3.56283 17.9779 5.51937 19.22 7.71451 19.7353C9.90965 20.2507 12.2145 20.009 14.255 19.0496C16.2955 18.0901 17.9519 16.4693 18.9553 14.45C19.0149 14.3314 19.0503 14.2021 19.0594 14.0696C19.0685 13.9372 19.0511 13.8043 19.0083 13.6786C18.9655 13.5529 18.898 13.437 18.81 13.3377C18.7219 13.2384 18.6149 13.1576 18.4953 13.1ZM18.9953 9.00001H9.40531L11.7053 6.71001C11.7985 6.61677 11.8725 6.50608 11.923 6.38426C11.9734 6.26244 11.9994 6.13187 11.9994 6.00001C11.9994 5.86815 11.9734 5.73758 11.923 5.61576C11.8725 5.49394 11.7985 5.38325 11.7053 5.29001C11.6121 5.19677 11.5014 5.12281 11.3796 5.07235C11.2577 5.02189 11.1272 4.99592 10.9953 4.99592C10.8634 4.99592 10.7329 5.02189 10.6111 5.07235C10.4892 5.12281 10.3785 5.19677 10.2853 5.29001L6.28531 9.29001C6.19427 9.38511 6.1229 9.49726 6.07531 9.62001C5.97529 9.86347 5.97529 10.1365 6.07531 10.38C6.1229 10.5028 6.19427 10.6149 6.28531 10.71L10.2853 14.71C10.3783 14.8037 10.4889 14.8781 10.6107 14.9289C10.7326 14.9797 10.8633 15.0058 10.9953 15.0058C11.1273 15.0058 11.258 14.9797 11.3799 14.9289C11.5017 14.8781 11.6123 14.8037 11.7053 14.71C11.799 14.617 11.8734 14.5064 11.9242 14.3846C11.975 14.2627 12.0011 14.132 12.0011 14C12.0011 13.868 11.975 13.7373 11.9242 13.6154C11.8734 13.4936 11.799 13.383 11.7053 13.29L9.40531 11H18.9953C19.2605 11 19.5149 10.8947 19.7024 10.7071C19.8899 10.5196 19.9953 10.2652 19.9953 10C19.9953 9.73479 19.8899 9.48044 19.7024 9.2929C19.5149 9.10537 19.2605 9.00001 18.9953 9.00001Z" fill="#C14C42"/>
</svg>
