<svg width="28" height="26" viewBox="0 0 28 26" fill="none" xmlns="http://www.w3.org/2000/svg">
<path d="M13.7421 0.00111567C17.3587 0.00111567 20.9736 -0.00230107 24.5902 0.00282404C26.2576 0.00624078 27.5406 1.33023 27.4774 2.9771C27.45 3.69291 27.1699 4.30792 26.6864 4.83751C23.6745 8.14663 20.6678 11.4592 17.6491 14.7597C17.3946 15.0382 17.2886 15.3081 17.2921 15.6857C17.3126 17.3718 17.2955 19.0563 17.304 20.7425C17.3057 21.1559 17.1605 21.4771 16.8376 21.735C15.1959 23.0419 13.5576 24.3539 11.9192 25.666C11.5912 25.9291 11.2376 26.0487 10.8259 25.8915C10.3988 25.7275 10.1716 25.3602 10.1716 24.8323C10.1716 21.9913 10.1391 19.1485 10.1904 16.3092C10.2057 15.4875 9.97681 14.8998 9.41647 14.2951C6.51907 11.1739 3.6678 8.00483 0.80115 4.85118C-0.697092 3.20431 -7.64109e-05 0.674214 2.11147 0.108743C2.4036 0.030158 2.71794 0.00794916 3.02203 0.00624078C6.59594 0.00111567 10.1681 0.00111567 13.7421 0.00111567ZM12.2097 22.8079C12.3224 22.7259 12.3822 22.6866 12.4386 22.6405C13.3064 21.9434 14.1692 21.2396 15.0421 20.5494C15.2078 20.4179 15.2693 20.2795 15.2676 20.0676C15.2591 18.3712 15.2711 16.6748 15.2574 14.9784C15.254 14.5599 15.3838 14.2284 15.664 13.9175C18.8108 10.4598 21.9508 6.9969 25.0959 3.53744C25.3658 3.24019 25.5247 2.92414 25.3504 2.53121C25.1779 2.1417 24.8448 2.03579 24.4382 2.03579C17.3023 2.04091 10.1664 2.04091 3.03057 2.03579C2.6274 2.03579 2.29085 2.12804 2.10976 2.51755C1.92013 2.92414 2.09097 3.24531 2.36773 3.55111C5.51967 7.0174 8.6682 10.4888 11.8219 13.9551C12.0866 14.2455 12.2165 14.5599 12.2148 14.9579C12.2045 16.9926 12.2097 19.029 12.2097 21.0636V22.8079Z" fill="black"/>
</svg>
