<svg width="205" height="155" viewBox="0 0 205 155" fill="none" xmlns="http://www.w3.org/2000/svg">
<path d="M144.003 36.931L128.841 86.3519L93.4147 101.456L84.762 69.1035L112.058 36.21L144.003 36.931Z" fill="#2C50A2"/>
<path d="M63.2256 24.0089L101.043 30.6692L52.0872 0.678955L63.2256 24.0089Z" fill="#2C50A2"/>
<path d="M82.2384 66.1813L107.067 35.5933L0 16.7604L82.2384 66.1813Z" fill="#2C50A2"/>
<path d="M151.84 17.0071L149.383 24.5497H204.06L151.84 17.0071Z" fill="#F05E53"/>
<path d="M149.772 15.973L143.671 34.6635L114.098 33.6389L128.472 15.935V15.9255L140.445 10.6694L149.772 15.973Z" fill="#FDD215"/>
<path d="M111.119 96.8167L117.552 154.321L94.0605 103.657L111.119 96.8167Z" fill="#F05E53"/>
<path d="M137.191 68.7714L183.538 67.2155L130.683 85.2324L137.191 68.7714Z" fill="#F05E53"/>
</svg>

