<svg width="27" height="27" viewBox="0 0 27 27" fill="none" xmlns="http://www.w3.org/2000/svg">
<path d="M20.9295 22.7735C15.1847 27.3563 7.22158 26.21 2.8995 20.9619C-1.26301 15.9071 -0.91239 8.41822 3.74908 3.75C8.43078 -0.93619 15.9489 -1.26658 21.0307 2.96335C26.2158 7.27645 27.3374 15.1992 22.7456 20.9619C22.8332 21.0136 22.9524 21.0541 23.031 21.1327C24.2043 22.2947 25.3752 23.4612 26.544 24.63C27.0362 25.1244 27.1373 25.7807 26.8137 26.3291C26.3529 27.1113 25.3236 27.2327 24.6515 26.5651C23.4783 25.4009 22.3163 24.2277 21.1521 23.0544C21.0711 22.9735 21.0082 22.8724 20.9273 22.7712L20.9295 22.7735ZM2.73767 12.8572C2.78038 18.4896 7.32048 22.9937 12.9102 22.9443C18.5201 22.8948 22.9793 18.366 22.9411 12.756C22.9029 7.19104 18.3291 2.6869 12.7641 2.73635C7.22158 2.78579 2.69722 7.35287 2.73767 12.8549V12.8572Z" fill="#C14C42"/>
</svg>
