<svg width="78" height="78" viewBox="0 0 78 78" fill="none" xmlns="http://www.w3.org/2000/svg">
<g clip-path="url(#clip0_17_616)">
<path d="M37.4584 0C56.9294 0 72.8223 13.0388 76.4133 30.9907C77.7418 37.6297 77.3571 44.162 75.2756 50.5974C74.7972 52.0778 73.556 52.8664 72.2211 52.5788C70.7052 52.2523 69.9197 50.7622 70.3432 49.1429C70.7989 47.4104 71.3387 45.6812 71.5876 43.9131C73.2263 32.387 69.9165 22.4479 61.5515 14.3705C54.9319 7.98039 46.8384 4.94855 37.6523 5.1845C28.7734 5.41399 21.1292 8.76259 14.8069 15.0202C7.37924 22.3703 3.9757 31.3042 4.63507 41.7185C5.50455 55.4813 15.5277 67.8026 28.8801 71.3386C41.4438 74.6646 52.4624 71.6748 61.8489 62.6924C62.5341 62.0363 63.2258 61.4868 64.2278 61.5676C65.3203 61.6549 66.1089 62.2076 66.4709 63.2451C66.8362 64.3021 66.5905 65.2459 65.7825 66.041C63.1708 68.6203 60.3038 70.8894 57.0296 72.541C42.9403 79.6584 29.1968 78.9732 16.1871 70.0296C7.24995 63.8851 1.92 55.1484 0.442867 44.3883C-1.60637 29.4586 3.49086 17.1955 15.2756 7.87049C22.06 2.50821 29.9887 0.0937348 37.4584 0Z" fill="white"/>
<path d="M23.2462 38.5347C23.2462 34.8855 23.2365 31.2395 23.2462 27.5903C23.2656 21.184 29.5523 17.5639 35.0956 20.7638C41.4308 24.4227 47.7756 28.0655 54.1011 31.7373C58.0121 34.0063 59.3373 38.5573 57.2235 42.3293C56.5382 43.5511 55.5944 44.5208 54.3823 45.2222C47.8177 49.0168 41.2724 52.8502 34.6722 56.5835C29.5717 59.4666 23.34 55.8271 23.2559 49.9606C23.201 46.153 23.2462 42.3422 23.2462 38.5347ZM28.3628 38.5476C28.3628 42.2485 28.3531 45.9494 28.3661 49.6503C28.3725 51.1339 29.1289 52.2006 30.4638 52.3622C31.1005 52.4397 31.8763 52.2749 32.4387 51.9581C38.9387 48.2669 45.4097 44.5337 51.8741 40.7843C52.2652 40.558 52.6111 40.1411 52.8244 39.7306C53.4999 38.4442 52.9666 37.0446 51.5315 36.2139C45.1996 32.555 38.8644 28.8994 32.5292 25.2502C30.3959 24.0219 28.3822 25.1597 28.3693 27.6097C28.3531 31.2557 28.3661 34.9049 28.3661 38.5508L28.3628 38.5476Z" fill="white"/>
</g>
<defs>
<clipPath id="clip0_17_616">
<rect width="77.1858" height="77.37" fill="white"/>
</clipPath>
</defs>
</svg>
