<svg width="23" height="18" viewBox="0 0 23 18" fill="none" xmlns="http://www.w3.org/2000/svg">
<path fill-rule="evenodd" clip-rule="evenodd" d="M22.7705 13.3145C22.7705 13.3145 22.2538 15.0994 21.5637 15.8125C20.6894 16.7489 19.6416 16.9475 19.1916 17.0022C19.0442 17.0134 18.8918 17.0229 18.7395 17.0324L18.7388 17.0261C18.538 17.0422 18.3317 16.9819 18.1786 16.8281C17.8995 16.5502 17.8995 16.0978 18.1786 15.8199C18.3049 15.6932 18.4689 15.6328 18.6339 15.6209L18.6331 15.6128C18.6574 15.611 18.683 15.6096 18.7065 15.6079C19.0789 15.5626 19.8904 15.5587 20.6153 14.785C21.1867 14.1961 21.372 12.8582 21.372 12.8582C21.372 12.8582 21.5623 11.2877 21.5623 9.71723V7.525C21.5623 5.95453 21.372 4.38298 21.372 4.38298C21.372 4.38298 21.1867 3.04534 20.6153 2.45628C19.8904 1.68331 19.0789 1.67927 18.7065 1.63417C16.041 1.43763 11.4993 1.43835 11.4993 1.43835C11.4993 1.43835 6.95835 1.43763 4.29282 1.63417C3.92038 1.67927 3.10891 1.68331 2.38441 2.45628C1.81368 3.04534 1.62761 4.38298 1.62761 4.38298C1.62761 4.38298 1.43737 5.95453 1.43737 7.525V9.71723C1.43737 11.2877 1.62761 12.8582 1.62761 12.8582C1.62761 12.8582 1.81368 14.196 2.38441 14.785C3.10886 15.5588 4.0608 15.5346 4.48482 15.6152C6.00888 15.7641 11.4993 15.8125 11.4993 15.8125C11.8966 15.8125 12.2181 16.1347 12.2181 16.5312C12.2181 16.9285 11.8966 17.25 11.4993 17.25C11.4873 17.25 11.4758 17.2479 11.4638 17.2472C11.01 17.2423 5.79861 17.1841 4.03902 17.011C3.52727 16.9124 2.31101 16.7489 1.43561 15.8125C0.745523 15.0994 0.22991 13.3145 0.22991 13.3145C0.22991 13.3145 0 11.7727 0 9.87095V7.36957C0 5.46776 0.22991 3.92536 0.22991 3.92536C0.22991 3.92536 0.745523 2.15081 1.43561 1.43835C2.31101 0.502047 3.35805 0.292531 3.80771 0.237771C7.02677 -4.47035e-08 11.4951 0 11.4951 0H11.5049C11.5049 0 15.9733 -4.47035e-08 19.1916 0.237771C19.6416 0.292531 20.6894 0.502047 21.5637 1.43835C22.2538 2.15077 22.7705 3.92536 22.7705 3.92536C22.7705 3.92536 23 5.46776 23 7.36957V9.87095C23 11.7727 22.7705 13.3145 22.7705 13.3145ZM14.3751 15.8125C14.7724 15.8125 15.0939 16.1347 15.0939 16.5312C15.0939 16.9285 14.7724 17.25 14.3751 17.25C13.9778 17.25 13.6562 16.9285 13.6562 16.5312C13.6562 16.1347 13.9778 15.8125 14.3751 15.8125ZM11.1616 12.1353L11.155 12.1388C11.0486 12.2034 10.9254 12.242 10.7924 12.242C10.4017 12.242 10.0848 11.9251 10.0848 11.5345C10.0848 11.2621 10.2403 11.0284 10.466 10.9098L10.4653 10.9091L14.1315 8.95396C14.1294 8.95221 14.1234 8.95082 14.1269 8.94907C14.247 8.89116 14.3299 8.76781 14.3299 8.62513C14.3299 8.49459 14.2576 8.38018 14.1533 8.31805L9.86152 6.02461C9.81166 5.99968 9.76009 5.98669 9.70286 5.98669C9.51086 5.98669 9.35781 6.13741 9.34725 6.32518L9.34797 10.7743H9.34236C9.34236 10.7768 9.34339 10.7792 9.34339 10.7817C9.34339 11.1789 9.02081 11.5004 8.62419 11.5004C8.22686 11.5004 7.90535 11.1789 7.90535 10.7817V10.7799V5.77556C7.90535 4.96804 8.56067 4.31299 9.36832 4.31299C9.64455 4.31299 9.90258 4.3895 10.1227 4.52251C10.1314 4.52723 10.1346 4.52565 10.142 4.52884L15.1003 7.38574C15.2052 7.44697 15.3021 7.51943 15.3916 7.60891C15.9532 8.17062 15.9532 9.08064 15.3916 9.64217C15.3091 9.72428 15.2182 9.79306 15.123 9.85168L11.1907 12.1177C11.1809 12.1241 11.1711 12.129 11.1616 12.1353Z" fill="#424242"/>
</svg>
